<?xml version="1.0" encoding="UTF-8"?>
<svg id="Layer_1" data-name="Layer 1" xmlns="http://www.w3.org/2000/svg" viewBox="0 0 500 500">
  <path fill='#284980'  d="m50.78,232.81c1.42-3.8,3.03-7.46,6.09-10.31,8.85-8.26,22.07-6.83,29.16,3.39,1.7,2.45,3.3,3.15,6.14,2.35,4.74-1.34,9.58-2.38,14.4-3.41,2.47-.53,3.67-1.71,4.13-4.35,2.46-13.92,6.78-27.27,13.5-39.74,1.57-2.91,1.54-4.99-.88-7.13-.67-.6-1.27-1.33-1.76-2.09-2.17-3.37-4.43-4.34-8.63-2.48-6.66,2.96-14.73.23-19.29-5.41-4.82-5.97-5.56-14.34-1.26-20.78,3.68-5.51,7.63-10.89,12.01-15.85,5.12-5.81,11.77-7.34,19.16-4.76,6.71,2.34,11.44,8.69,11.57,16.06.05,2.9,1.49,3.85,3.65,5.19,6.24,3.9,10.84,3.05,15.82-2.68,5.8-6.67,13.27-11.66,20.85-16.25,2.52-1.53,3.28-3.25,2.73-6.1-.89-4.59-1.5-9.24-2.09-13.88-.29-2.31-1.03-3.25-3.69-3.17-9.2.25-16.73-5.84-18.64-14.62-1.84-8.46,2.52-17.21,10.87-20.75,8.01-3.39,16.17-6.46,24.37-9.35,7.88-2.78,16.13-.08,20.83,6.35,4.83,6.61,4.79,15.35-.4,22.16-1.45,1.9-1.58,3.21-.2,5.12,3.21,4.42,6.28,8.94,9.32,13.48,1.09,1.63,2.28,2.06,4.26,1.66,7.39-1.46,14.82-2.73,22.39-2.63,3.07.04,4.32-1.72,5.14-4.34.81-2.59,1.83-4.61-.88-7.23-6.69-6.47-8.35-14.52-5.06-23.29,3.12-8.29,11.05-13.49,20.01-13.61,4.44-.06,8.84.42,13.13,1.42,8.88,2.07,14.69,7.6,16.85,16.52,2.07,8.57-.61,15.96-7.43,21.19-4.55,3.49-1.86,7.33-1.81,10.99.04,2.92,3.12,2.68,5.11,3.25,9.4,2.71,18.49,6.17,27.09,10.83,2.52,1.37,4.38,1.39,6.59-.61,3.47-3.14,7.14-6.06,10.89-8.86,2.09-1.56,2.27-2.78.94-5.1-7.07-12.37-.23-26.24,13.75-28.03,4.7-.6,9.09.77,12.82,3.63,7.01,5.39,13.99,10.82,20.73,16.54,6.21,5.27,7.87,14.1,4.5,21.36-3.39,7.31-11.1,11.71-19.12,10.48-2.49-.38-3.55.39-4.46,2.45-2.1,4.76-4.3,9.48-6.51,14.19-.83,1.77-.94,3.37.13,5.16,1.88,3.14,1.31,6.09-1.6,8.28-2.96,2.22-5.81,1.53-8.44-.89-5.04-4.63-5.89-8.02-3.11-14.21,3.83-8.55,7.74-17.06,11.73-25.53,2.52-5.33,5.45-6.16,10.64-3.31,3.68,2.02,6.77,1.65,8.69-1.03,1.89-2.64,1.25-5.92-1.96-8.54-5.94-4.85-11.96-9.62-18.03-14.29-3.25-2.5-6.49-2.22-8.68.42-2.15,2.6-1.48,6.18,1.66,8.87.89.76,1.83,1.46,2.67,2.27,3.33,3.22,3.44,7.17-.12,10.16-8.07,6.76-16.27,13.38-24.53,19.91-3.03,2.39-6.5,2.52-9.88.56-11.34-6.55-23.44-11.15-36.16-14.14-4.08-.96-6.78-3.44-7.35-7.62-.82-5.92-1.36-11.88-1.92-17.83-.34-3.57,1.3-5.84,4.66-7.21,4.89-1.98,6.73-4.98,6.31-9.55-.39-4.3-3.14-7.09-8.18-8.06-2.8-.54-5.63-.95-8.47-1.21-4.36-.4-8.52,2.56-9.77,6.78-1.16,3.91.63,7.93,4.55,10.19,6.38,3.68,6.88,5.04,4.39,11.88-1.61,4.4-3.17,8.81-4.77,13.22-1.46,4.01-4.38,6.05-8.58,6.15-10.15.22-20.19,1.32-30.09,3.65-4.38,1.03-7.89-.34-10.49-4.11-5.53-8.04-11.17-16-16.66-24.07-3.21-4.72-2.34-7.97,2.63-10.95,3.72-2.23,4.86-4.9,3.41-7.99-1.43-3.04-4.36-4.03-8.31-2.56-6.94,2.58-13.86,5.21-20.74,7.97-4.24,1.7-5.82,4.74-4.57,8.17,1.18,3.25,4.43,4.23,8.88,2.69,7.98-2.76,10.74-1.1,11.96,7.16,1.24,8.36,2.49,16.72,3.76,25.07,1.11,7.28.03,9.66-6.34,13.48-10.44,6.25-19.81,13.82-28.18,22.66-4.62,4.88-7.27,5.39-13.54,2.74-5.74-2.43-11.48-4.88-17.16-7.46-4.64-2.11-5.68-4.57-4.14-9.37.95-2.94,1.26-5.82-1.83-7.57-3.24-1.83-5.66-.21-7.64,2.47-2.7,3.66-5.51,7.25-8.19,10.93-2.35,3.23-2.25,6.44.13,8.39,2.49,2.04,5.24,1.46,8.05-1.71,3.91-4.39,7.49-4.46,11.42.03,4.54,5.18,8.96,10.48,13.39,15.76,2.85,3.39,3.08,7.13.94,10.89-8.07,14.19-13.27,29.36-15.64,45.5-.78,5.32-3.65,8.27-8.91,9.41-9.14,1.97-18.21,4.25-27.32,6.33-5.46,1.25-8.07-.49-9.17-5.93-.91-4.51-3.5-6.89-7.25-6.68-3.82.21-6.27,3.15-6.43,7.85-.21,6.5-.38,13.01-.52,19.51-.02,1.16.08,2.35.34,3.48.86,3.73,3.3,5.61,6.95,5.48,3.6-.13,6.22-2.26,6.27-6.11.13-9.72,3.76-11.87,13.33-9.21,7.37,2.05,14.91,3.5,22.39,5.16,7.67,1.71,9.48,3.63,10.64,11.31.37,2.44.97,4.85,1.35,7.28.57,3.66-1.35,6.75-4.58,7.55-3.42.84-6.25-.84-7.51-4.48-.09-.25-.24-.5-.23-.74.2-7.77-4.71-10.04-11.28-10.56-.89-.07-1.76-.44-2.65-.63-2.54-.52-5.14-1.61-7.61-1.38-3.08.29-2.84,3.95-4.23,6-8.25,12.17-26.45,11.3-33.37-1.73-.67-1.26-1.22-2.59-1.83-3.88,0-10.68,0-21.35,0-32.03Z"/>
  <path fill='#284980' d="m382.1,243.36c.1-10.08-1.39-19.96-3.86-29.71-1.79-7.05-.93-9.29,5.16-13.49,4.17-2.88,8.36-5.75,12.61-8.5,3.65-2.37,6.37-1.95,9.35,1.18,3.87,4.06,8.15,5.14,11.69,2.94,3.71-2.31,4.72-6.79,2.72-12.18-1.22-3.29-2.36-6.62-3.76-9.84-1.9-4.4-5.95-6.45-10.07-5.34-4.02,1.08-6.1,4.48-5.75,9.4.54,7.59-.41,8.9-7.76,10.15-4.6.78-9.23,1.45-13.87,2-2.3.27-4.85.78-6.86-.64-5.68-4-8.31-10.13-10.17-16.48-.68-2.32,1.19-4.48,3.6-5.43,2.49-.98,4.97-.77,6.8,1.34,1.43,1.66,2.75,3.51,3.67,5.48,1.34,2.85,3.36,3.27,6.07,2.55,2.54-.67,5.38.09,6.07-4.27,1.52-9.55,9.09-15.99,18.77-17.09,8.13-.92,16.99,4.29,20.66,12.51,2.06,4.62,3.83,9.41,5.37,14.23,2.71,8.49-.08,17.59-6.72,22.87-6.88,5.48-15.88,6.37-23.66,1.48-4.24-2.67-6.09.75-8.83,2.13-2.65,1.33-2.47,3.47-1.9,6,2.29,10.31,3.73,20.75,3.41,31.34-.09,2.86.76,4.53,3.57,5.59,4.49,1.69,8.87,3.72,13.23,5.74,1.96.91,3.1.85,4.4-1.24,5.42-8.65,14.34-11.62,23.17-7.98,8.2,3.38,12.51,12.03,10.68,21.58-1.39,7.28-2.8,14.56-4.3,21.82-1.97,9.57-7.91,15.49-16.35,16.45-8.3.94-15.21-3.35-19.23-12.17-.89-1.96-2-2.8-4.13-2.68-5.57.33-11.15.59-16.73.79-1.88.07-2.75,1.09-3.36,2.69-2.32,6.08-4.91,12.05-8.07,17.75-.58,1.05-1.22,2.21-.36,3.28,2.2,2.73,4.46,5.42,6.84,8,1.18,1.28,2.66.42,4.03.09,13.1-3.08,24.32,4.52,26.48,17.85.37,2.26.03,4.42-.38,6.58-2.08,10.88-13.68,21.74-23.48,22.04-11.47.35-20.07-6.53-21.84-17.91-.44-2.83-1.68-4.06-4.01-5.45-6.09-3.64-10.74-3.73-15.91,2.25-5.59,6.46-12.85,11.33-20.16,15.89-1.86,1.16-2.71,2.37-2.2,4.77.99,4.7,1.77,9.46,2.28,14.24.33,3.04,1.68,3.73,4.54,3.77,11.14.12,19.16,8.71,18.39,19.73-.52,7.39-4.47,12.74-11.21,15.66-7.87,3.4-15.84,6.58-23.88,9.56-7.71,2.86-16.33.19-20.95-6.07-4.84-6.56-5.07-15.17-.14-21.82,1.76-2.38,1.62-3.93-.04-6.09-3-3.92-5.86-7.97-8.6-12.08-1.45-2.17-3.14-2.69-5.63-2.16-17.18,3.68-34.47,4.29-51.83,1.41-2.73-.45-4.69.14-6.21,2.69-3,5.02-6.21,9.93-9.44,14.81-1.25,1.89-1.32,3.26.33,5.11,7.73,8.67,6.73,18.71,2.34,28.49-3.16,7.04-11.08,10.08-18.95,7.59-8.9-2.82-17.73-6.01-26.34-9.64-8.26-3.48-12.85-12.48-11.79-21.39,1.08-9.08,7.32-16.22,16.52-17.89,3.93-.71,5.15-2.58,5.41-6.15.38-5.18.99-10.35,1.61-15.51.3-2.51-.52-4.14-2.78-5.4-11.22-6.22-21.15-14.17-30.25-23.17-1.53-1.51-2.8-1.87-4.78-1-4.75,2.1-9.56,4.09-14.41,5.95-2.04.78-2.64,2.01-2.73,4.11-.38,8.73-5.51,15.54-13.24,17.84-8.04,2.4-16.3-.3-21.48-7.18-2.58-3.42-5.04-6.96-7.4-10.54-4.94-7.49-4.84-16.37.14-23.03,5.18-6.93,13.41-9.4,22.26-6.42,2.33.79,3.81.52,5.38-1.41,2.87-3.53,5.9-6.94,9.02-10.25,1.6-1.69,1.79-3.17.69-5.2-1.36-2.51-2.59-5.12-3.58-7.79-1.23-3.3.13-6.48,3.07-7.89,2.97-1.42,6.38-.51,8.05,2.61,2.39,4.47,4.56,9.06,6.61,13.7,1.42,3.2.37,6.21-1.79,8.7-6.22,7.18-12.47,14.33-18.86,21.34-3.09,3.4-6.32,3.32-9.94.28-3.74-3.15-7-3.57-9.72-1.25-2.82,2.41-2.92,6.65-.19,10.61,1.99,2.89,3.94,5.82,6.07,8.61,2.38,3.12,6,4.06,8.94,2.56,3.03-1.55,4.13-4.77,2.96-8.72-1.51-5.11-.45-7.58,4.38-9.61,8.51-3.56,17.09-6.96,25.59-10.54,4.16-1.75,7.69-.86,10.64,2.27,10.43,11.1,22.37,20.18,35.79,27.34,3.75,2,5.11,5.25,4.64,9.47-1.19,10.59-2.25,21.2-3.42,31.8-.57,5.13-3.53,7.35-8.6,6.44-2.19-.39-4.28-.84-6.5-.06-3.47,1.22-5.38,3.7-5.67,7.21-.27,3.35,1.06,6.4,4.17,7.78,8.19,3.65,16.67,6.56,25.2,9.32,2.26.73,3.79-.34,4.66-2.39,2.99-7.01,1.33-12.01-5.18-15.74-3.71-2.12-4.96-5.61-2.73-9.23,6.01-9.74,12.16-19.4,18.45-28.97,2.08-3.17,5.27-4.39,9.18-3.62,19.4,3.78,38.73,3.35,57.92-1.43,4.53-1.13,7.91.28,10.52,3.92,5.76,8.03,11.55,16.05,17.18,24.18,3.01,4.34,2.15,7.76-2.28,10.48-3.72,2.29-5.03,5.3-3.61,8.32,1.41,3,4.65,3.87,8.78,2.24,6.53-2.58,13.03-5.21,19.54-7.82,1.45-.58,2.88-1.2,3.95-2.42,1.75-1.99,1.89-4.27.9-6.57-.92-2.15-2.8-2.92-5.08-2.93-1.75-.01-3.28.7-4.86,1.29-6.04,2.27-9.48.33-10.57-6.08-1.41-8.33-2.32-16.77-4.2-25-1.74-7.6.72-12.2,7.38-15.97,9.66-5.47,17.87-12.94,25.52-21,4.61-4.86,7.39-5.32,13.55-2.58,5.34,2.38,10.7,4.72,16.04,7.1,4.9,2.19,5.8,3.79,5.21,9.05-.56,4.99.92,8.06,4.68,9.69,3.66,1.58,7.3.54,10.34-3.1,1.5-1.79,2.98-3.64,4.19-5.62,2.19-3.57,1.6-7.57-1.28-10.34-2.71-2.61-6.64-3.02-10.09-1.06-6.85,3.89-7.64,3.77-12.66-2.15-3.62-4.26-7.17-8.59-10.82-12.82-3.29-3.81-3.72-7.79-1.23-12.21,4.23-7.49,7.83-15.29,10.61-23.44,1.41-4.15,4.21-6.65,8.53-6.87,10.5-.52,21.02-.93,31.53-1.13,4.12-.08,6.28,2.66,6.14,6.87-.03.78-.22,1.57-.15,2.33.28,3.02,1.64,5.25,4.87,5.66,3.08.39,5.61-.77,6.29-3.92,1.84-8.51,3.56-17.05,5-25.64.5-2.99-1.15-5.32-4.37-5.94-3.26-.62-5.65.64-6.77,3.8-.6,1.7-.75,3.56-1.27,5.3-1.21,4.05-4.62,6.02-8.48,4.42-9.95-4.15-19.83-8.48-29.66-12.92-3.38-1.53-4.81-4.64-4.95-8.27-.11-2.86-.02-5.73-.02-8.59Z"/>
  <path fill='#284980' d="m212.85,164.81c-19.91-.02-37.86,16.94-38.01,35.91-.1,13.54,9.34,23.43,22.87,24.06,5.96.28,11.6-.93,17.04-3.29,1.19-.51,2.37-1.13,3.61-1.41,3.18-.73,5.69.4,7.11,3.35,1.44,3.01.73,6.02-2.03,7.54-14.2,7.86-28.84,9.19-43.49,1.37-12.36-6.6-19.36-20.9-17.76-35.16,2.39-21.3,20.1-40.32,41.45-44.24,13.94-2.56,26.81-.26,36.98,10.34,13.14,13.71,12.43,33.43,2.88,48.73-2.02,3.24-5.51,3.96-8.48,2.21-2.88-1.69-3.93-5.21-2.18-8.52,2.34-4.41,4.37-8.91,4.8-13.91,1.41-16.29-8.45-26.96-24.8-26.98Z"/>
  <path fill='#284980' d="m241.38,252.09c15.2,0,27.19,11.98,27.21,27.2.02,15.34-12.3,27.86-27.31,27.73-14.83-.12-27.48-12.77-27.47-27.44.02-15.25,12.3-27.49,27.57-27.49Zm-.05,42.2c8.03.01,14.94-6.92,14.91-14.95-.03-7.87-6.76-14.59-14.72-14.7-8.21-.11-15.03,6.55-15.04,14.72-.02,8.16,6.7,14.92,14.86,14.93Z"/>
  <path fill='#284980' d="m310.01,201.03c-7.3-.33-14.54-3.01-19.84-9.69-6.91-8.7-5.91-20.6,2.23-28.19,9.51-8.86,25.28-9.55,35.55-1.56,11.81,9.18,11.72,24.95-.22,33.99-4.94,3.74-10.57,5.42-17.72,5.44Zm1.18-12.78c1.29-.11,2.61-.09,3.86-.36,8.19-1.77,11.66-9.5,6.74-14.93-5.21-5.76-16.67-5.55-21.65.38-2.79,3.33-2.73,7.33.21,10.59,2.89,3.21,6.6,4.43,10.83,4.32Z"/>
  <path fill='#284980' d="m154.24,307c.05-12.06,9.5-21.37,21.65-21.34,11.94.03,21.74,9.87,21.56,21.63-.18,11.75-10.17,21.63-21.84,21.59-11.69-.04-21.42-10-21.37-21.88Zm30.42-.05c-.07-4.84-4.16-8.86-9-8.86-4.87,0-8.67,3.97-8.67,9.04,0,5.12,3.7,8.97,8.65,9.01,4.97.04,9.1-4.17,9.02-9.19Z"/>
  <path fill='#284980' d="m345,268.45c-.02,11.86-9.47,21.44-21.22,21.5-11.75.06-21.46-9.83-21.38-21.8.07-11.63,10-21.48,21.49-21.32,11.8.17,21.13,9.73,21.12,21.63Zm-21.29,8.67c4.8,0,8.67-3.82,8.74-8.62.07-4.92-3.98-8.96-8.89-8.87-4.83.1-8.43,3.89-8.4,8.84.04,4.98,3.67,8.65,8.56,8.65Z"/>
  <path fill='#284980' d="m267.96,321.57c11.54.02,20.81,9.27,20.85,20.8.04,11.6-9.55,21.18-21.12,21.09-11.61-.09-20.75-9.53-20.68-21.4.06-11.7,9.09-20.53,20.95-20.5Zm8.04,20.89c.05-4.7-3.66-8.54-8.21-8.51-4.25.03-8.21,3.91-8.36,8.19-.17,4.63,3.52,8.44,8.2,8.49,4.94.04,8.32-3.25,8.37-8.17Z"/>
  <path fill='#284980' d="m312.2,323.66c-1.56-.1-3.15-.01-4.65-.35-3.13-.72-5.03-2.76-5.07-6.05-.04-3.29,1.78-5.5,4.92-6.15,3.31-.69,6.75-.66,10.07-.02,3.13.6,5.07,2.7,5.1,6.01.03,3.51-2.05,5.54-5.33,6.24-1.63.35-3.36.23-5.05.32Z"/>
  <path fill='#284980' d="m265.87,141.97c1.42,0,2.86-.14,4.27.03,3.45.4,5.37,2.41,5.52,5.9.15,3.42-2.05,5.93-5.6,6.21-2.58.2-5.19.18-7.77.03-3.81-.23-6.02-2.71-5.91-6.31.11-3.41,2.31-5.6,5.98-5.87,1.16-.08,2.33-.01,3.5-.01,0,0,0,.02,0,.03Z"/>
  <path fill='#284980' d="m164.21,257.2c-2.74-.01-4.42.07-6.02-.64-2.49-1.1-3.88-3.01-3.89-5.73-.01-2.9,1.43-4.99,4.17-5.89,2.88-.95,5.89-.91,8.78-.09,2.94.84,4.52,3.04,4.46,6.08-.06,2.86-1.61,4.91-4.37,5.76-1.33.41-2.78.46-3.14.51Z"/>
  <path fill='#284980' d="m286.56,239.96c-.9,0-1.82.09-2.71-.02-3.41-.41-5.92-2.94-6.08-6.05-.16-2.97,2.24-5.93,5.62-6.43,2.14-.32,4.42-.34,6.55.02,3.27.56,5.3,2.69,5.49,6.11.17,3.1-2.32,5.71-5.77,6.28-1.01.17-2.06.13-3.09.19,0-.03,0-.07,0-.1Z"/>
  <path fill='#284980' d="m217.52,330.21c1.03,0,2.08-.09,3.1.02,3.4.34,5.81,2.94,5.77,6.14-.04,3.19-2.49,5.75-5.92,6.02-1.8.14-3.62.12-5.43.03-3.89-.2-6.17-2.44-6.24-5.99-.06-3.74,2.26-6.02,6.38-6.24.77-.04,1.55,0,2.33,0,0,.01,0,.02,0,.04Z"/>
</svg>