<?xml version="1.0" encoding="UTF-8"?>
<svg id="Layer_1" data-name="Layer 1" xmlns="http://www.w3.org/2000/svg" viewBox="0 0 500 500">
  <path fill='#284980' d="m450.89,316.96c0,36.46-.04,72.92.07,109.37,0,2.66-.51,3.5-3.2,3.19-2.49-.29-5.04-.06-7.57-.06-3.09-2.39-4.02-5.54-3.97-9.4.16-11.75.06-23.5.06-35.24,0-20.08.03-40.15-.03-60.23-.02-5.26-2.51-8.51-6.37-8.78-3.42-.24-6.11,2.3-7.09,6.67-1.22,5.46-4.19,7.88-8.8,7.19-4.32-.65-6.42-3.79-6.16-9.29.04-.89.04-1.82.3-2.65.7-2.22-.01-3.66-2.01-4.78-5.06-2.81-8.06-7.26-9.98-12.64-1.74-4.87-3.73-9.65-5.61-14.47,2.01,15.16,4.82,30.03,7.65,44.89,3.33,17.51,6.71,35.01,9.96,52.54,1.35,7.25-1.65,10.74-9,10.81-5.04.05-10.09.07-15.13,0-2.79-.04-4.13,1.08-4.06,3.96.08,3.42-.21,6.86.05,10.26.77,10.2-3.61,17.14-12.86,21.17h-15.14c-4.7-1.5-9.16-3.48-12.84-6.86-1.63-1.5-2.98-1.5-4.61,0-3.68,3.39-8.14,5.37-12.84,6.87h-15.14c-9.26-4.02-13.64-10.97-12.86-21.17.25-3.25-.08-6.55.07-9.81.15-3.32-1.33-4.51-4.53-4.41-4.75.14-9.5.05-14.25.02-7.94-.05-10.82-3.48-9.36-11.26,2.71-14.46,5.51-28.9,8.25-43.35,3.37-17.77,6.73-35.55,10.09-53.33-2.62,4.85-4.48,9.97-6.6,14.96-4.36,10.24-13.68,15.53-24.68,14.22-1.17-.14-2.36-.38-3.52-.28-16.71,1.38-26.65-4.93-32.51-20.72-2.35-6.32-4.71-12.64-7.07-18.95-.23.06-.46.12-.68.19,0,1.62,0,3.24,0,4.86,0,41.65,0,83.31,0,124.96,0,12.97-4.27,19.23-16.38,24.09h-18.71c-4.69-1.49-9.22-3.33-12.86-6.77-1.62-1.53-2.95-1.53-4.57,0-3.65,3.43-8.17,5.28-12.86,6.77h-18.71c-12.12-4.85-16.38-11.08-16.38-24.07,0-41.79,0-83.58,0-125.36,0-1.51,0-3.02,0-4.53-2.04,3.45-3.32,6.92-4.65,10.38-2.98,7.73-4.9,16-11.32,21.96-1.56,1.45-.73,2.98.03,4.47,1.72,3.38,2.69,6.93,2.31,10.75-.4,3.97-2.7,6.18-6.58,6.64-3.89.46-7.08-1.74-8.09-5.44-.35-1.28-.47-2.64-.9-3.9-.97-2.83-3.1-4.47-6.01-4.49-3.12-.01-5.22,1.77-6.27,4.77-.71,2.03-.56,4.11-.56,6.18-.01,31.08-.05,62.16.05,93.24.01,3.86-.87,7.01-3.96,9.4h-7.13c-3.09-2.39-3.98-5.54-3.96-9.4.1-32.29.09-64.58.02-96.86-.01-4.94,1.16-9.41,3.9-13.47,1.03-1.53,1.81-3.04.98-4.97-2.32-5.36-1.57-10.71-.08-16.14,7.21-26.23,14.67-52.4,21.4-78.76,6.63-25.94,20.56-45.87,44.74-58.02,1.66-.83,2.77-1.78,2.08-3.77-2.84-8.26-1.47-16.82-1.68-25.25-.17-6.83-.01-6.84-6.91-7.32-4.53-.31-7.26-3.05-7.32-7.33-.07-4.47,2.74-7.31,7.5-7.6,7.3-.43,7.28-.44,9.32-7.48,2.5-8.6,5.79-16.66,14.63-20.77h37.42c9.31,4.41,12.72,12.98,14.91,22.09,1.09,4.52,2.79,6.57,7.72,6.26,5.82-.37,8.91,2.64,8.83,7.5-.07,4.69-3.04,7.51-8.65,7.25-4.72-.21-5.67,1.74-5.65,6.04.02,8.29,1.27,16.72-1.16,24.84-.99,3.31-.12,4.67,2.79,6.17,21.51,11.08,35.31,28.57,41.92,51.77,4.03,14.15,7.77,28.38,11.66,42.57.29,1.05.28,2.28,1.64,3.06,3.1-7.94,6.3-15.62,9.11-23.44,7.78-21.62,21.63-37.7,42.54-47.41,2.54-1.18,2.82-2.46,1.57-4.82-2.18-4.1-3.53-8.54-3.65-13.21-.1-3.73-.78-7.32-1.36-10.99-1.73-10.97-1.7-21.79,7.22-30.27,2.05-1.95,1.08-3.66.33-5.62-4.58-11.9-.33-23.87,10.68-30.31,8.22-4.8,17.16-5.65,26.28-4.19,18.54,2.96,29.79,19.27,21.86,36.06-.64,1.36-.56,2.58.59,3.64,8.78,8.1,9.03,18.55,7.89,29.3-.36,3.37-1.87,6.54-1.66,10.06.3,5.15-.88,10.13-3.31,14.62-1.83,3.37-.99,4.71,2.31,6.28,18.47,8.83,31.73,22.78,39.35,41.83,8.38,20.98,16.44,42.08,24.61,63.15,1.69,4.35,2.74,8.83,1.54,13.51-.56,2.18-.02,3.74,2.05,4.8,5.86,3.02,9.51,7.9,11.55,14.09Zm-187.95-22.61c1.67-1.33,1.86-3.05,2.43-4.53,7.09-18.3,14.1-36.63,21.25-54.91,1.93-4.92,5.55-6.72,9.75-5.3,4.45,1.5,6.02,5.19,4.57,10.51-.9,3.29-1.86,6.59-2.47,9.94-2.47,13.51,3.22,20.67,16.66,21.15,4.18.15,7.2,2.71,7.65,6.67.46,4.12-1.35,6.95-5.29,8.18-4.5,1.4-9.12,1.38-13.6.03-3.05-.92-4.36.07-4.93,3.06-5.34,28.33-10.71,56.66-16.14,84.97-.67,3.49-.14,5.09,4.01,5.07,33.4-.14,66.81-.13,100.21,0,3.84.01,4.56-1.32,3.9-4.78-5.46-28.46-10.84-56.94-16.22-85.41-.51-2.71-1.7-3.93-4.59-2.96-3.89,1.31-7.94,1.22-11.9.57-5.47-.89-8-4-7.5-8.7.49-4.6,3.72-6.91,9.3-6.66,8.93.4,13.04-2.84,15.08-11.59,1.64-7.04-.61-13.51-2.47-20.09-1.36-4.81.29-8.37,4.31-9.9,4.2-1.59,7.95.15,10.01,4.84,1.43,3.27,2.63,6.63,3.93,9.96,6.69,17.18,13.39,34.35,20.07,51.54.93,2.39,2.27,4.37,5.03,4.31,2.5-.06,4.62-1.32,5.69-3.69,1.04-2.31.52-4.66-.37-6.94-8.36-21.48-16.36-43.1-25.19-64.38-7.03-16.94-19.93-28.17-37.09-34.51-2.63-.97-4.98-1.02-7.67.2-9.57,4.34-19.31,4.34-28.89.05-2.67-1.19-5.01-1.27-7.67-.29-17.49,6.45-30.25,18.03-37.53,35.26-4.69,11.09-8.12,22.75-13.39,33.54-5.53,11.31-6.56,22.19-1.52,33.66.12.27.27.52.59,1.14Zm-104.52-.95c9.5,0,19,0,28.49,0q7.05,0,7.06-7.17c0-18,.03-35.99,0-53.99-.01-4.24,1.59-7.25,5.86-8.27,3.99-.95,7.12.98,9.03,5.38.71,1.63,1.29,3.32,1.91,5,6.82,18.39,13.67,36.78,20.45,55.19,1.6,4.36,3.87,8.09,8.45,9.75,2.05.74,4.29,1.8,6.36.17,2.27-1.79,1.06-4.11.5-6.19-7.76-28.54-15.39-57.11-23.4-85.57-5.45-19.37-17.52-33.43-35.51-42.44-3-1.5-5.28-1.34-8.11.67-13.02,9.25-28.56,9.3-41.55.05-3.04-2.17-5.43-2.15-8.51-.58-17.14,8.71-29.25,21.97-34.58,40.5-8.46,29.42-16.26,59.02-24.29,88.56-1.25,4.61.63,6.43,5.35,5.37,5.54-1.24,8.34-5.2,10.19-10.22,7.19-19.53,14.44-39.03,21.67-58.54,1.1-2.97,2.31-5.88,5.69-6.96,5.28-1.7,9.85,1.92,9.87,8.05.07,18.29.03,36.59.04,54.88q0,6.34,6.53,6.36c9.5,0,19,0,28.49,0Zm-35.02,66.2c0,15.33,0,30.65,0,45.98,0,4.23,1.16,7.98,5.8,8.82,12.76,2.31,22.21-3,22.04-16.43-.16-12.8-.04-25.59-.03-38.39,0-9.97.02-19.94.02-29.91,0-3.1,1.19-5.52,4.04-6.88,2.59-1.24,5.21-1.1,7.65.45,2.89,1.82,3.26,4.71,3.25,7.82-.03,22.02-.03,44.05,0,66.07,0,12.39,5.4,17.78,17.64,17.7,7.65-.05,10.16-2.5,10.16-10.18.03-30.21-.05-60.41.09-90.62.02-4.21-1.15-5.77-5.54-5.73-19.89.19-39.79.2-59.68,0-4.45-.04-5.55,1.62-5.5,5.77.19,15.18.07,30.36.08,45.53Zm35.52-244.08c-5.18,0-10.37.14-15.55-.05-3.34-.13-5.01,1.25-5.29,4.49-.65,7.55-1.21,15.14.71,22.56,2.23,8.66,10.91,15.05,19.87,15.07,9.11.02,17.89-6.61,20.01-15.47,1.75-7.3,1.26-14.73.61-22.13-.28-3.21-1.89-4.66-5.26-4.52-5.03.2-10.07.05-15.11.05Zm178.08,63.5c10.15-.14,18.77-7.77,20.38-17.81.39-2.45,0-3.95-2.54-4.76-5.7-1.82-10.92-4.59-15.54-8.44-1.6-1.33-3.14-1.48-4.79-.11-4.73,3.94-10.1,6.73-15.93,8.65-2.05.67-2.61,1.92-2.37,4.07,1.17,10.21,10.49,18.54,20.78,18.4Zm.4-55.53c-.74,0-1.49-.05-2.22,0-7.34.61-13.97,2.98-18.9,8.68-1.95,2.26-3.46,5.89-1.59,8.15,1.84,2.22,4.35-.98,6.56-1.82.14-.05.27-.14.37-.24,10.28-9.61,20.43-9.25,30.74.09,1.69,1.53,4.69,4.08,6.53,2.11,2.07-2.23.23-5.63-1.34-8.16-.76-1.22-1.98-2.22-3.17-3.09-5.05-3.7-10.72-5.63-16.99-5.73Zm-179.17-22.95c3.7,0,7.39,0,11.09,0,9.36,0,9.62-.54,5.88-9.3-1.64-3.84-3.71-4.32-7.21-2.42-5.68,3.07-11.61,3.11-17.54.6-6.42-2.72-6.86-2.55-9.11,3.89-.39,1.12-.7,2.26-1.06,3.39-.8,2.6-.11,3.92,2.86,3.86,5.02-.11,10.05-.03,15.08-.02Zm178.7-6.47c-3.67.45-7.37.81-10.7,2.63-2.7,1.47-4.81,3.48-5.47,6.64-1.01,4.86,1.2,7.19,5.9,5.96,6.9-1.81,13.72-1.76,20.62.06,4.24,1.12,6.1-.54,5.81-4.94-.21-3.23-2.08-5.47-4.69-7.17-3.48-2.26-7.49-2.63-11.47-3.18Zm-17.87,300.01v.03c-2.36,0-4.73-.01-7.09,0-2.18.01-3.26,1.15-3.26,3.32,0,4.3-.08,8.59.05,12.89.09,3.07,1.99,4.35,4.95,4.5,7.83.39,14.23-4.89,15.48-12.9,1.07-6.84.25-7.82-6.58-7.83-1.18,0-2.36,0-3.55,0Zm35.56.03c-2.36,0-4.73-.02-7.09,0-1.67.02-2.73.72-3.15,2.48-1.57,6.59,2.71,14.72,9.09,17.1,8.42,3.15,11.54,1.03,11.54-7.84,0-.44,0-.89,0-1.33-.1-11.79,1.35-10.34-10.39-10.41Z"/>
</svg>