<?xml version="1.0" encoding="UTF-8"?>
<svg id="Layer_1" data-name="Layer 1" xmlns="http://www.w3.org/2000/svg" viewBox="0 0 500 500">
  <path fill='#284980' d="m450.78,190.36c-5.66,30-22.29,54.26-40.96,77.32-33.23,41.04-72.89,75.37-113.95,108.21-4.67,3.74-9.37,7.33-15.31,9.03-6.25,1.79-12.4,1.51-18.38-.56-2.72-.94-3.94-.29-5.34,1.91-5.73,9-12.22,17.44-18.93,25.73-15.87,19.62-42.07,22.86-62.22,7.64-1.75-1.32-3.01-2.34-5.36-.56-20.94,15.91-46.34,12.97-63.06-7.34-22.85-27.76-40.04-58.82-52.38-92.48-12.35-33.7,5.28-73.06,38.32-86.96,2.99-1.26,5.96-2.54,9.14-3.32,4.75-1.17,4.78-1.28,2.63-5.58-4.9-9.8-9.02-19.91-10.72-30.78-2.4-15.3-.81-30.43,4.12-44.97,12.93-38.09,38.67-62.92,77.82-73.32,4.12-1.1,8.38-1.67,12.58-2.48,7.8,0,15.59,0,23.39,0,.24.11.46.28.71.31,21.39,2.84,40.32,11.2,56.63,25.35,2.2,1.91,3.75,1.42,5.69-.29,7.43-6.57,15.79-11.71,24.72-16,10.27-4.93,21.23-7.38,32.34-9.37,7.8,0,15.59,0,23.39,0,.88.2,1.75.44,2.64.59,42.01,7.21,70.44,31,86.07,70.44,3.37,8.51,4.84,17.47,6.42,26.41v21.05Zm-289.36,48.16c-2.5-5.63-5.52-9.33-8.9-12.77-2.46-2.5-5.07-4.87-7.31-7.56-2.83-3.39-2.51-8.09.41-10.98,2.83-2.81,7.51-3.34,10.66-.56,9.71,8.58,18.69,17.82,22.2,30.84.95,3.53,1.9,3.58,4.78,1.6,17.26-11.92,36.28-15.95,56.71-10.96,43.36,10.6,65.81,56.08,48.34,97.22-5.79,13.63-11.63,27.24-18.94,40.15-1.59,2.8-1.03,3.92,2.27,4.02,4.46.12,8.01-1.74,11.36-4.38,31.33-24.74,61.56-50.74,89.18-79.62,20.25-21.18,39.27-43.37,52.61-69.75,6.32-12.48,10.64-25.42,9.68-39.93-1.51-22.7-9.39-42.56-25.03-58.96-23.92-25.08-53.13-33.76-86.96-26.13-14.35,3.23-26.74,10.42-37.87,19.99-8.41,7.23-16.31,7.06-24.9-.03-1.1-.91-2.2-1.83-3.32-2.72-21.85-17.36-46.66-23.73-73.86-18.04-31.08,6.5-52.66,25.38-65.33,54.28-6.07,13.86-8.63,28.51-6.97,43.72,1.06,9.72,5.14,18.43,8.89,27.28,3.11,7.35,7.11,13.18,16.31,12.37.49-.04,1,.24,1.51.35,8.46,1.84,16.28,5.21,24.49,10.59Zm35.53,11.59c2.04.73,3.25,1.14,4.44,1.6,10.72,4.06,19.54,10.6,26.38,19.86,9.52,12.89,11.38,27.58,10.28,42.96-.31,4.28-3.07,7.19-7.59,7.56-15.4,1.26-30.15-.75-42.98-10.24-15.24-11.28-22.72-26.59-23.06-45.48-.04-2.14.5-4.39-1.54-6.15-12.33-10.62-25.8-17.99-42.85-17.6-33.27.75-61.51,33.76-49.62,70.25,10.67,32.73,28,62.22,49.92,88.85,10.97,13.32,27.72,14.55,41.06,3.41,8.21-6.85,14.16-6.87,22.55-.07,14.3,11.59,30.32,9.84,42.05-4.45,20.46-24.95,35.68-52.89,47.59-82.75,3.69-9.25,5.1-18.86,3.54-28.66-3.99-25.06-21.4-42.45-46.58-46.08-11.52-1.66-22.71.29-33.59,7Zm-10.84,15.18c-4.84-.18-5.08.06-4.92,4.94.58,18.06,18.22,35.22,36.19,35.4,3.32.03,4.23-1.15,4.16-4.32-.4-18.32-17.06-35.34-35.43-36.02Z"/>
  <path fill='#284980' d="m326.1,230.83c3.28-8.57,6.24-16.28,9.18-24,2.36-6.19,4.67-12.4,7.05-18.57,2.17-5.61,4.64-7.39,10.52-7.41,15.2-.04,30.4,0,45.61-.02,1.85,0,3.67.17,5.34.93,3.26,1.48,5.13,4.09,4.97,7.68-.17,3.72-2.19,6.29-5.85,7.41-2.01.61-4.08.68-6.17.68-11.56-.02-23.13.22-34.69-.12-4.48-.13-6.32,1.53-7.79,5.53-6.48,17.67-13.29,35.23-19.98,52.83-.46,1.21-.9,2.44-1.42,3.63-1.57,3.56-4.2,5.53-8.21,5.37-3.89-.16-6.29-2.41-7.42-5.88-2.93-9.01-5.7-18.08-8.49-27.13-6.62-21.46-13.21-42.93-19.82-64.39-.15-.47-.43-.91-.87-1.83-3.78,8.27-7.6,16.06-10.91,24.06-2.44,5.9-6.47,8.11-12.72,8.01-15.2-.23-30.4-.08-45.61-.07-1.96,0-3.89-.05-5.78-.66-3.67-1.17-5.86-4.09-5.75-7.85.11-3.81,2.04-6.31,5.66-7.51,1.89-.63,3.82-.66,5.78-.66,13.12,0,26.25-.14,39.37.1,3.74.07,5.56-1.3,7-4.59,5.33-12.12,10.93-24.13,16.41-36.19,1.4-3.09,3.24-5.65,6.95-6.11,4.63-.57,7.85,1.76,9.57,7.23,4.23,13.5,8.39,27.03,12.56,40.55,4.67,15.13,9.33,30.27,14.01,45.4.29.93.75,1.81,1.5,3.61Z"/>
  <path fill='#284980' d="m187.29,189.27c-.07,4.35-4.11,8.15-8.46,7.96-4.28-.18-7.87-3.97-7.77-8.21.09-4.23,3.86-8.01,8.03-8.04,4.28-.03,8.27,4,8.21,8.29Z"/>
</svg>