<?xml version="1.0" encoding="UTF-8"?>
<svg id="Layer_1" data-name="Layer 1" xmlns="http://www.w3.org/2000/svg" viewBox="0 0 482.98 494.15">
  <defs>
    <style>
      .cls-1 {
        fill: #ee4266;
      }

      .cls-1, .cls-2 {
        stroke-width: 0px;
      }

      .cls-2 {
        fill: #fff;
      }
    </style>
  </defs>
  <path class="cls-2" d="m385.39,48.74H61.77C27.65,48.74,0,76.39,0,110.51v244.8c0,34.11,27.65,61.77,61.77,61.77h90.82l57.45,70.63c6.98,8.59,20.09,8.59,27.08,0l57.45-70.63h90.82c34.11,0,61.77-27.65,61.77-61.77V110.51c0-34.11-27.65-61.77-61.77-61.77Z"/>
  <g>
    <path class="cls-1" d="m277.89,8.5c-23.09,15.3-29.53,46.97-14.24,69.99,10.65,16.04,26.92,21.56,43.86,14.97,1.88-.73,4.05-3.22,5.88-.99,1.48,1.81-.37,4.2-1.16,6.17-6.95,17.53-18.62,31.52-33.2,43.14-5.73,4.56-11.95,8.52-18.04,12.61-3.69,2.48-4.2,5.98-3.14,9.7,1.26,4.45,5.02,3.01,8,2.55,8.26-1.26,16.18-3.82,23.96-6.82,39.38-15.2,67.75-55.2,67.74-96.92.69-13.4-2.77-27.24-10.88-39.73-15.54-23.92-45.33-30.2-68.77-14.66Z"/>
    <path class="cls-1" d="m482.78,60.11c-.52-6.11-1.98-11.19-3.42-15.03-1.07-3.77-2.1-7.57-3.72-11.09-8.16-17.81-19.95-31.7-41.08-33.35-21.74-1.7-39.28,6.43-49.71,25.83-9.83,18.28-8.63,36.96,3.45,54.14,10.42,14.83,26.78,19.18,43.44,12.4,1.51-.61,2.9-1.94,5.07-.93.56,2.15-.59,4.12-1.35,6.08-4.56,11.8-11.37,22.19-19.96,31.43-8.91,9.58-19.23,17.4-30.42,24.1-4.36,2.61-5.27,6.46-3.81,10.73,1.45,4.22,5.3,2.69,8.24,2.15,26.79-4.89,48.79-18,66.78-38.39,11.09-12.57,18.1-27.04,22.82-42.73,0,0,0,0,0,0,1.97-5.14,4.61-14.14,3.65-25.34Z"/>
  </g>
</svg>